<mxfile host="app.diagrams.net" modified="2022-03-18T10:10:12.488Z" agent="5.0 (Macintosh; Intel Mac OS X 10_15_7) AppleWebKit/537.36 (KHTML, like Gecko) Chrome/93.0.4577.63 Safari/537.36" etag="L_fuQvo63SGqboK1UYqx" version="17.1.2" type="github">
  <diagram id="nzgqhuMdJP4xSVh_eFwg" name="Page-1">
    <mxGraphModel dx="648" dy="536" grid="1" gridSize="10" guides="1" tooltips="1" connect="1" arrows="1" fold="1" page="1" pageScale="1" pageWidth="827" pageHeight="1169" math="0" shadow="0">
      <root>
        <mxCell id="0" />
        <mxCell id="1" parent="0" />
        <mxCell id="CVH5hkvNC9U6hlzxyR2Y-1" value="" style="rounded=0;whiteSpace=wrap;html=1;" vertex="1" parent="1">
          <mxGeometry x="110" y="80" width="340" height="360" as="geometry" />
        </mxCell>
        <mxCell id="CVH5hkvNC9U6hlzxyR2Y-2" value="Player" style="shape=umlActor;verticalLabelPosition=bottom;verticalAlign=top;html=1;outlineConnect=0;" vertex="1" parent="1">
          <mxGeometry x="20" y="220" width="50" height="120" as="geometry" />
        </mxCell>
        <mxCell id="CVH5hkvNC9U6hlzxyR2Y-4" value="Exit Game&lt;span style=&quot;color: rgba(0 , 0 , 0 , 0) ; font-family: monospace ; font-size: 0px&quot;&gt;%3CmxGraphModel%3E%3Croot%3E%3CmxCell%20id%3D%220%22%2F%3E%3CmxCell%20id%3D%221%22%20parent%3D%220%22%2F%3E%3CmxCell%20id%3D%222%22%20value%3D%22%22%20style%3D%22rounded%3D0%3BwhiteSpace%3Dwrap%3Bhtml%3D1%3B%22%20vertex%3D%221%22%20parent%3D%221%22%3E%3CmxGeometry%20x%3D%22140%22%20y%3D%22250%22%20width%3D%22120%22%20height%3D%2260%22%20as%3D%22geometry%22%2F%3E%3C%2FmxCell%3E%3C%2Froot%3E%3C%2FmxGraphModel%3E&lt;/span&gt;" style="rounded=1;whiteSpace=wrap;html=1;" vertex="1" parent="1">
          <mxGeometry x="130" y="100" width="110" height="40" as="geometry" />
        </mxCell>
        <mxCell id="CVH5hkvNC9U6hlzxyR2Y-7" value="Select Difficulty" style="rounded=1;whiteSpace=wrap;html=1;" vertex="1" parent="1">
          <mxGeometry x="130" y="170" width="110" height="40" as="geometry" />
        </mxCell>
        <mxCell id="CVH5hkvNC9U6hlzxyR2Y-8" value="Interact with board" style="rounded=1;whiteSpace=wrap;html=1;" vertex="1" parent="1">
          <mxGeometry x="130" y="235" width="110" height="40" as="geometry" />
        </mxCell>
        <mxCell id="CVH5hkvNC9U6hlzxyR2Y-9" value="Enter Name" style="rounded=1;whiteSpace=wrap;html=1;" vertex="1" parent="1">
          <mxGeometry x="130" y="300" width="110" height="40" as="geometry" />
        </mxCell>
        <mxCell id="CVH5hkvNC9U6hlzxyR2Y-10" value="Reset Game" style="rounded=1;whiteSpace=wrap;html=1;" vertex="1" parent="1">
          <mxGeometry x="130" y="370" width="110" height="40" as="geometry" />
        </mxCell>
        <mxCell id="CVH5hkvNC9U6hlzxyR2Y-12" value="Record Game" style="rounded=1;whiteSpace=wrap;html=1;" vertex="1" parent="1">
          <mxGeometry x="320" y="195" width="110" height="40" as="geometry" />
        </mxCell>
        <mxCell id="CVH5hkvNC9U6hlzxyR2Y-13" value="Validate Name" style="rounded=1;whiteSpace=wrap;html=1;" vertex="1" parent="1">
          <mxGeometry x="320" y="300" width="110" height="40" as="geometry" />
        </mxCell>
        <mxCell id="CVH5hkvNC9U6hlzxyR2Y-15" value="" style="endArrow=none;html=1;rounded=0;entryX=0;entryY=0.5;entryDx=0;entryDy=0;" edge="1" parent="1" target="CVH5hkvNC9U6hlzxyR2Y-4">
          <mxGeometry width="50" height="50" relative="1" as="geometry">
            <mxPoint x="70" y="250" as="sourcePoint" />
            <mxPoint x="120" y="200" as="targetPoint" />
          </mxGeometry>
        </mxCell>
        <mxCell id="CVH5hkvNC9U6hlzxyR2Y-16" value="" style="endArrow=none;html=1;rounded=0;entryX=0;entryY=0.5;entryDx=0;entryDy=0;" edge="1" parent="1" target="CVH5hkvNC9U6hlzxyR2Y-7">
          <mxGeometry width="50" height="50" relative="1" as="geometry">
            <mxPoint x="70" y="250" as="sourcePoint" />
            <mxPoint x="140" y="130" as="targetPoint" />
          </mxGeometry>
        </mxCell>
        <mxCell id="CVH5hkvNC9U6hlzxyR2Y-17" value="" style="endArrow=none;html=1;rounded=0;entryX=0;entryY=0.5;entryDx=0;entryDy=0;" edge="1" parent="1" target="CVH5hkvNC9U6hlzxyR2Y-8">
          <mxGeometry width="50" height="50" relative="1" as="geometry">
            <mxPoint x="70" y="250" as="sourcePoint" />
            <mxPoint x="150" y="140" as="targetPoint" />
          </mxGeometry>
        </mxCell>
        <mxCell id="CVH5hkvNC9U6hlzxyR2Y-18" value="" style="endArrow=none;html=1;rounded=0;entryX=0;entryY=0.5;entryDx=0;entryDy=0;" edge="1" parent="1" target="CVH5hkvNC9U6hlzxyR2Y-9">
          <mxGeometry width="50" height="50" relative="1" as="geometry">
            <mxPoint x="70" y="250" as="sourcePoint" />
            <mxPoint x="160" y="150" as="targetPoint" />
          </mxGeometry>
        </mxCell>
        <mxCell id="CVH5hkvNC9U6hlzxyR2Y-19" value="" style="endArrow=none;html=1;rounded=0;entryX=0;entryY=0.5;entryDx=0;entryDy=0;" edge="1" parent="1" target="CVH5hkvNC9U6hlzxyR2Y-10">
          <mxGeometry width="50" height="50" relative="1" as="geometry">
            <mxPoint x="70" y="250" as="sourcePoint" />
            <mxPoint x="140" y="330" as="targetPoint" />
          </mxGeometry>
        </mxCell>
        <mxCell id="CVH5hkvNC9U6hlzxyR2Y-22" value="Database" style="shape=umlActor;verticalLabelPosition=bottom;verticalAlign=top;html=1;outlineConnect=0;" vertex="1" parent="1">
          <mxGeometry x="480" y="220" width="50" height="110" as="geometry" />
        </mxCell>
        <mxCell id="CVH5hkvNC9U6hlzxyR2Y-24" value="" style="endArrow=none;html=1;rounded=0;exitX=1;exitY=0.5;exitDx=0;exitDy=0;entryX=0;entryY=0.3333333333333333;entryDx=0;entryDy=0;entryPerimeter=0;" edge="1" parent="1" source="CVH5hkvNC9U6hlzxyR2Y-12" target="CVH5hkvNC9U6hlzxyR2Y-22">
          <mxGeometry width="50" height="50" relative="1" as="geometry">
            <mxPoint x="450" y="310" as="sourcePoint" />
            <mxPoint x="500" y="260" as="targetPoint" />
          </mxGeometry>
        </mxCell>
        <mxCell id="CVH5hkvNC9U6hlzxyR2Y-25" value="" style="endArrow=block;dashed=1;endFill=0;endSize=12;html=1;rounded=0;" edge="1" parent="1">
          <mxGeometry width="160" relative="1" as="geometry">
            <mxPoint x="240" y="319.5" as="sourcePoint" />
            <mxPoint x="320" y="320" as="targetPoint" />
          </mxGeometry>
        </mxCell>
        <mxCell id="CVH5hkvNC9U6hlzxyR2Y-26" value="" style="endArrow=block;dashed=1;endFill=0;endSize=12;html=1;rounded=0;startArrow=none;entryX=0.564;entryY=-0.075;entryDx=0;entryDy=0;entryPerimeter=0;" edge="1" parent="1" source="CVH5hkvNC9U6hlzxyR2Y-30" target="CVH5hkvNC9U6hlzxyR2Y-13">
          <mxGeometry width="160" relative="1" as="geometry">
            <mxPoint x="370" y="235" as="sourcePoint" />
            <mxPoint x="370" y="300" as="targetPoint" />
          </mxGeometry>
        </mxCell>
        <mxCell id="CVH5hkvNC9U6hlzxyR2Y-27" value="" style="endArrow=block;dashed=1;endFill=0;endSize=12;html=1;rounded=0;entryX=1;entryY=0.5;entryDx=0;entryDy=0;" edge="1" parent="1" target="CVH5hkvNC9U6hlzxyR2Y-7">
          <mxGeometry width="160" relative="1" as="geometry">
            <mxPoint x="320" y="210" as="sourcePoint" />
            <mxPoint x="400" y="210.5" as="targetPoint" />
          </mxGeometry>
        </mxCell>
        <mxCell id="CVH5hkvNC9U6hlzxyR2Y-28" value="&lt;font style=&quot;font-size: 10px&quot;&gt;&amp;lt;&amp;lt;include&amp;gt;&amp;gt;&lt;/font&gt;" style="text;html=1;align=center;verticalAlign=middle;resizable=0;points=[];autosize=1;strokeColor=none;fillColor=none;" vertex="1" parent="1">
          <mxGeometry x="240" y="300" width="70" height="20" as="geometry" />
        </mxCell>
        <mxCell id="CVH5hkvNC9U6hlzxyR2Y-29" value="&lt;font style=&quot;font-size: 10px&quot;&gt;&amp;lt;&amp;lt;extend&amp;gt;&amp;gt;&lt;/font&gt;" style="text;html=1;align=center;verticalAlign=middle;resizable=0;points=[];autosize=1;strokeColor=none;fillColor=none;rotation=15;" vertex="1" parent="1">
          <mxGeometry x="250" y="180" width="70" height="20" as="geometry" />
        </mxCell>
        <mxCell id="CVH5hkvNC9U6hlzxyR2Y-30" value="&lt;font style=&quot;font-size: 10px&quot;&gt;&amp;lt;&amp;lt;extend&amp;gt;&amp;gt;&lt;/font&gt;" style="text;html=1;align=center;verticalAlign=middle;resizable=0;points=[];autosize=1;strokeColor=none;fillColor=none;rotation=0;" vertex="1" parent="1">
          <mxGeometry x="340" y="255" width="70" height="20" as="geometry" />
        </mxCell>
        <mxCell id="CVH5hkvNC9U6hlzxyR2Y-31" value="" style="endArrow=none;dashed=1;endFill=0;endSize=12;html=1;rounded=0;" edge="1" parent="1" target="CVH5hkvNC9U6hlzxyR2Y-30">
          <mxGeometry width="160" relative="1" as="geometry">
            <mxPoint x="370" y="235" as="sourcePoint" />
            <mxPoint x="370" y="300" as="targetPoint" />
          </mxGeometry>
        </mxCell>
      </root>
    </mxGraphModel>
  </diagram>
</mxfile>
